<svg id="Capa_1" enable-background="new 0 0 512 512" style="fill:#007bff;" height="512" viewBox="0 0 512 512" width="512" xmlns="http://www.w3.org/2000/svg"><path id="XMLID_121_" d="m270.911 369.132h-29.822c-6.153 0-11.682-3.757-13.946-9.478l-32.698-82.588-44.741-20.173c-4.622-2.084-7.879-6.363-8.656-11.373l-10.23-65.899c-.672-4.329.581-8.734 3.431-12.061 2.851-3.326 7.012-5.241 11.392-5.241h220.723c4.38 0 8.541 1.915 11.392 5.241 2.85 3.326 4.103 7.732 3.431 12.061l-10.23 65.899c-.777 5.01-4.034 9.289-8.656 11.373l-44.741 20.173-32.698 82.588c-2.269 5.721-7.798 9.478-13.951 9.478zm-19.628-30h9.434l31.185-78.763c1.435-3.625 4.226-6.549 7.78-8.152l42.874-19.332 6.297-40.566h-185.706l6.297 40.566 42.874 19.332c3.555 1.603 6.346 4.527 7.78 8.152z"/><path id="XMLID_120_" d="m102.68 348.773c-3.847 0-7.692-1.47-10.623-4.41l-87.68-87.953c-5.836-5.854-5.836-15.326 0-21.181l87.68-87.953c5.847-5.866 15.345-5.882 21.213-.033 5.867 5.849 5.882 15.346.033 21.213l-77.122 77.364 77.122 77.362c5.849 5.867 5.834 15.365-.033 21.213-2.927 2.92-6.759 4.378-10.59 4.378z"/><path id="XMLID_119_" d="m409.32 348.773c-3.831 0-7.662-1.458-10.59-4.377-5.867-5.849-5.882-15.346-.033-21.213l77.122-77.362-77.122-77.362c-5.849-5.867-5.834-15.365.033-21.213 5.864-5.849 15.362-5.834 21.213.033l87.68 87.953c5.836 5.854 5.836 15.326 0 21.181l-87.68 87.953c-2.929 2.936-6.776 4.407-10.623 4.407z"/></svg>